<?xml version="1.0" encoding="UTF-8"?>
<svg id="Layer_2" data-name="Layer 2" xmlns="http://www.w3.org/2000/svg" viewBox="0 0 1080 1080">
  <defs>
    <style>
      .cls-1 {
        fill: #2f2f40;
      }

      .cls-2 {
        fill: #d6ae5a;
      }
    </style>
  </defs>
  <g id="Layer_1-2" data-name="Layer 1">
    <rect class="cls-1" width="1080" height="1080"/>
    <g>
      <rect class="cls-2" x="465.55" y="585.11" width="12.67" height="11.92"/>
      <rect class="cls-2" x="446.88" y="585.11" width="12.77" height="11.92"/>
      <path class="cls-2" d="M527.06,524.03c-16.32,0-24.69,8.59-24.69,25.23v14.06h-24.15v-37.57h-14.49v37.57h-95.75v13.1h150.82c20.93,0,32.31-9.77,32.31-27.7,0-15.14-9.34-24.69-24.05-24.69ZM521.37,563.32h-4.51v-15.24c0-8.05,3.22-11.81,10.41-11.81,6.01,0,9.34,4.4,9.34,12.45,0,9.77-5.04,14.6-15.24,14.6Z"/>
      <path class="cls-2" d="M688.61,524.03c-16.32,0-24.69,8.59-24.69,25.23v14.06h-23.61v-14.28c0-17.07-7.73-25.01-24.37-25.01-14.28,0-21.79,5.69-24.15,19.21l13.96,1.5c1.29-6.12,3.86-8.27,10.63-8.27s9.45,3.76,9.45,13.53v13.31h-49.06v-63.55h-14.49v76.64h118.08c20.93,0,32.31-9.77,32.31-27.7,0-15.14-9.34-24.69-24.05-24.69ZM682.92,563.32h-4.51v-15.24c0-8.05,3.22-11.81,10.41-11.81,6.01,0,9.34,4.4,9.34,12.45,0,9.77-5.04,14.6-15.24,14.6Z"/>
      <path class="cls-2" d="M396.65,525.16c-14.17.54-29.31,3.65-29.31,19.11,0,11.7,8.59,16.75,18.57,16.75,8.7,0,13.74-3.44,18.14-8.48v7.08h14.17v-35.42c0-13.74-6.12-22.33-23.4-22.33-14.06,0-22.44,4.94-24.47,16.64l13.74,1.29c.86-4.51,4.29-6.76,10.2-6.76,5.15,0,9.55,2.15,9.55,9.02v2.79l-7.19.32ZM403.73,537.51c0,4.62-1.93,7.51-4.62,9.55-2.47,1.83-5.58,2.68-9.45,2.68-4.62,0-7.3-2.25-7.3-6.01,0-4.72,2.15-8.27,14.71-8.8l6.66-.32v2.9Z"/>
      <rect class="cls-2" x="431.1" y="503.59" width="15.03" height="56.03"/>
      <rect class="cls-2" x="430.89" y="482.98" width="15.46" height="13.53"/>
    </g>
  </g>
</svg>